<?xml version="1.0" encoding="UTF-8"?>
<svg xmlns="http://www.w3.org/2000/svg" xmlns:xlink="http://www.w3.org/1999/xlink" viewBox="0 0 2298.66 1035.01">
  <defs>
    <style>
      .cls-1 {
        fill: #f47d3c;
      }

      .cls-1, .cls-2, .cls-3, .cls-4, .cls-5, .cls-6, .cls-7, .cls-8, .cls-9, .cls-10, .cls-11, .cls-12, .cls-13, .cls-14, .cls-15, .cls-16, .cls-17, .cls-18, .cls-19, .cls-20, .cls-21, .cls-22, .cls-23, .cls-24, .cls-25, .cls-26, .cls-27, .cls-28, .cls-29, .cls-30, .cls-31, .cls-32, .cls-33, .cls-34, .cls-35, .cls-36, .cls-37, .cls-38, .cls-39, .cls-40, .cls-41, .cls-42, .cls-43, .cls-44, .cls-45, .cls-46, .cls-47, .cls-48, .cls-49, .cls-50, .cls-51, .cls-52, .cls-53, .cls-54, .cls-55, .cls-56, .cls-57 {
        stroke-width: 0px;
      }

      .cls-1, .cls-3, .cls-27 {
        opacity: .5;
      }

      .cls-2 {
        fill: #d66f5a;
      }

      .cls-3 {
        fill: #ffda33;
      }

      .cls-4 {
        fill: url(#linear-gradient-12);
      }

      .cls-5 {
        fill: url(#linear-gradient-17);
      }

      .cls-6 {
        fill: #40505d;
      }

      .cls-7 {
        fill: url(#linear-gradient-19);
      }

      .cls-8 {
        fill: url(#linear-gradient);
      }

      .cls-9 {
        fill: #9455b5;
      }

      .cls-10 {
        fill: #6faf9b;
      }

      .cls-11 {
        fill: url(#linear-gradient-21);
      }

      .cls-12 {
        fill: #e3c658;
      }

      .cls-13 {
        fill: url(#linear-gradient-6);
      }

      .cls-14 {
        fill: #ae4343;
      }

      .cls-15 {
        fill: #96999f;
      }

      .cls-16 {
        fill: #ff7229;
      }

      .cls-17 {
        fill: #5e9282;
      }

      .cls-18 {
        fill: #0091c0;
      }

      .cls-58 {
        isolation: isolate;
      }

      .cls-19 {
        fill: #baac8b;
      }

      .cls-20 {
        opacity: .9;
      }

      .cls-20, .cls-39 {
        fill: #fff;
      }

      .cls-21 {
        fill: #e5e5e5;
      }

      .cls-22 {
        fill: #564935;
      }

      .cls-23 {
        fill: url(#linear-gradient-15);
      }

      .cls-24 {
        fill: url(#linear-gradient-11);
      }

      .cls-25 {
        fill: #7abfa9;
      }

      .cls-26 {
        fill: url(#linear-gradient-5);
      }

      .cls-27 {
        fill: #f5f7ff;
      }

      .cls-28 {
        fill: #dc9941;
      }

      .cls-29 {
        fill: #96cea6;
      }

      .cls-30 {
        fill: url(#linear-gradient-4);
        opacity: .8;
      }

      .cls-31 {
        fill: #bf4b4b;
      }

      .cls-32 {
        fill: url(#linear-gradient-13);
      }

      .cls-33 {
        fill: #ccc;
      }

      .cls-34 {
        fill: #547b93;
      }

      .cls-35 {
        fill: #545368;
      }

      .cls-36 {
        fill: #f6f6f6;
      }

      .cls-37 {
        fill: url(#linear-gradient-16);
      }

      .cls-38 {
        fill: #fbec3d;
      }

      .cls-59 {
        mix-blend-mode: multiply;
        opacity: .1;
      }

      .cls-40 {
        fill: url(#linear-gradient-20);
      }

      .cls-41 {
        fill: url(#linear-gradient-14);
      }

      .cls-42 {
        fill: url(#linear-gradient-2);
      }

      .cls-43 {
        fill: #6f6762;
      }

      .cls-44 {
        fill: url(#linear-gradient-7);
      }

      .cls-45 {
        fill: #9489b5;
      }

      .cls-46 {
        fill: url(#linear-gradient-3);
      }

      .cls-47 {
        fill: #c97a43;
      }

      .cls-48 {
        fill: #eb1b2c;
      }

      .cls-49 {
        fill: url(#linear-gradient-9);
      }

      .cls-50 {
        fill: url(#radial-gradient);
      }

      .cls-51 {
        fill: url(#linear-gradient-8);
      }

      .cls-52 {
        fill: url(#linear-gradient-18);
      }

      .cls-53 {
        fill: #4aa9b1;
      }

      .cls-54 {
        fill: #7669a2;
      }

      .cls-55 {
        fill: #54acde;
      }

      .cls-56 {
        fill: url(#linear-gradient-10);
      }

      .cls-57 {
        fill: #0093b6;
      }
    </style>
    <linearGradient id="linear-gradient" x1="398.41" y1="1381.34" x2="1900.25" y2="-346.33" gradientUnits="userSpaceOnUse">
      <stop offset="0" stop-color="#152755"/>
      <stop offset=".07" stop-color="#16315f"/>
      <stop offset=".32" stop-color="#1b4f7d"/>
      <stop offset=".56" stop-color="#1f6493"/>
      <stop offset=".79" stop-color="#2171a0"/>
      <stop offset="1" stop-color="#2276a5"/>
    </linearGradient>
    <linearGradient id="linear-gradient-2" x1="-279.27" y1="1025.25" x2="-279.27" y2="917.82" gradientTransform="translate(1261.87) rotate(-180) scale(1 -1)" gradientUnits="userSpaceOnUse">
      <stop offset="0" stop-color="#d7d9d9"/>
      <stop offset="1" stop-color="#898989"/>
    </linearGradient>
    <linearGradient id="linear-gradient-3" x1="-279.27" y1="915.63" x2="-279.27" y2="321.32" gradientTransform="translate(1820.42 1256.69) scale(1 -1)" gradientUnits="userSpaceOnUse">
      <stop offset="0" stop-color="#d7d9d9"/>
      <stop offset="1" stop-color="#fff"/>
    </linearGradient>
    <linearGradient id="linear-gradient-4" x1="-279.27" y1="482.3" x2="-279.27" y2="356.69" gradientTransform="translate(1261.87) rotate(-180) scale(1 -1)" gradientUnits="userSpaceOnUse">
      <stop offset="0" stop-color="#838383"/>
      <stop offset="1" stop-color="#231f20"/>
    </linearGradient>
    <linearGradient id="linear-gradient-5" x1="-669.56" y1="604.01" x2="-561.59" y2="604.01" gradientTransform="translate(2493.02 1208.02) scale(1 -1)" gradientUnits="userSpaceOnUse">
      <stop offset="0" stop-color="#4aa9b1"/>
      <stop offset=".21" stop-color="#46c6c4"/>
      <stop offset=".79" stop-color="#46c6c4"/>
      <stop offset="1" stop-color="#4aa9b1"/>
    </linearGradient>
    <linearGradient id="linear-gradient-6" x1="-244.68" y1="649.12" x2="-182.97" y2="649.12" gradientTransform="translate(1689.52 1298.24) scale(1 -1)" xlink:href="#linear-gradient-5"/>
    <linearGradient id="linear-gradient-7" x1="-182.97" y1="621.17" x2="-121.27" y2="621.17" gradientTransform="translate(1566.11 1242.34) scale(1 -1)" xlink:href="#linear-gradient-5"/>
    <linearGradient id="linear-gradient-8" x1="-32.36" y1="620.38" x2="47.7" y2="620.38" gradientTransform="translate(1246.53 1240.77) scale(1 -1)" xlink:href="#linear-gradient-5"/>
    <linearGradient id="linear-gradient-9" x1="-561.59" y1="604.01" x2="-502.22" y2="604.01" gradientTransform="translate(2325.68 1208.02) scale(1 -1)" gradientUnits="userSpaceOnUse">
      <stop offset="0" stop-color="#e85833"/>
      <stop offset=".22" stop-color="#f47d3c"/>
      <stop offset=".8" stop-color="#f47d3c"/>
      <stop offset="1" stop-color="#e85833"/>
    </linearGradient>
    <linearGradient id="linear-gradient-10" x1="-273.17" y1="649.12" x2="-244.68" y2="649.12" gradientTransform="translate(1779.72 1298.24) scale(1 -1)" xlink:href="#linear-gradient-9"/>
    <linearGradient id="linear-gradient-11" x1="-121.27" y1="603.78" x2="-81.16" y2="603.78" gradientTransform="translate(1464.3 1207.55) scale(1 -1)" xlink:href="#linear-gradient-9"/>
    <linearGradient id="linear-gradient-12" x1="-502.22" y1="619.27" x2="-425.87" y2="619.27" gradientTransform="translate(2189.96 1238.55) scale(1 -1)" gradientUnits="userSpaceOnUse">
      <stop offset="0" stop-color="#152755"/>
      <stop offset=".17" stop-color="#104f87"/>
      <stop offset=".75" stop-color="#104f87"/>
      <stop offset="1" stop-color="#152755"/>
    </linearGradient>
    <linearGradient id="linear-gradient-13" x1="-425.87" y1="607.93" x2="-349.52" y2="607.93" gradientTransform="translate(2037.26 1215.85) scale(1 -1)" xlink:href="#linear-gradient-12"/>
    <linearGradient id="linear-gradient-14" x1="-349.52" y1="628.42" x2="-273.17" y2="628.42" gradientTransform="translate(1884.56 1256.83) scale(1 -1)" gradientUnits="userSpaceOnUse">
      <stop offset="0" stop-color="#ff9233"/>
      <stop offset=".18" stop-color="#ffda33"/>
      <stop offset=".8" stop-color="#ffda33"/>
      <stop offset="1" stop-color="#ff9233"/>
    </linearGradient>
    <linearGradient id="linear-gradient-15" x1="-81.16" y1="604.01" x2="-32.36" y2="604.01" gradientTransform="translate(1375.38 1208.02) scale(1 -1)" xlink:href="#linear-gradient-12"/>
    <linearGradient id="linear-gradient-16" x1="47.7" y1="606.6" x2="111.01" y2="606.6" gradientTransform="translate(1103.15 1213.19) scale(1 -1)" xlink:href="#linear-gradient-12"/>
    <linearGradient id="linear-gradient-17" x1="-505.06" y1="94.01" x2="-301.15" y2="645.22" gradientTransform="translate(1261.87) rotate(-180) scale(1 -1)" gradientUnits="userSpaceOnUse">
      <stop offset="0" stop-color="#fff"/>
      <stop offset="1" stop-color="#fff" stop-opacity="0"/>
    </linearGradient>
    <linearGradient id="linear-gradient-18" x1="54.43" y1="-288.66" x2="-217.4" y2="-330.67" gradientTransform="translate(1642 554.35) rotate(-154.59) scale(1 -1)" gradientUnits="userSpaceOnUse">
      <stop offset="0" stop-color="#636363"/>
      <stop offset="1" stop-color="#231f20"/>
    </linearGradient>
    <linearGradient id="linear-gradient-19" x1="-629.28" y1="483.98" x2="-619.72" y2="483.98" gradientTransform="translate(1261.87) rotate(-180) scale(1 -1)" gradientUnits="userSpaceOnUse">
      <stop offset="0" stop-color="#e85833"/>
      <stop offset=".3" stop-color="#ed6837"/>
      <stop offset=".69" stop-color="#f2773a"/>
      <stop offset="1" stop-color="#f47d3c"/>
    </linearGradient>
    <radialGradient id="radial-gradient" cx="-624.08" cy="589.38" fx="-624.08" fy="589.38" r="42.22" gradientTransform="translate(1261.87) rotate(-180) scale(1 -1)" gradientUnits="userSpaceOnUse">
      <stop offset="0" stop-color="#f47d3c"/>
      <stop offset=".31" stop-color="#f2773a"/>
      <stop offset=".7" stop-color="#ed6837"/>
      <stop offset="1" stop-color="#e85833"/>
    </radialGradient>
    <linearGradient id="linear-gradient-20" x1="-752.67" y1="448.62" x2="-716.03" y2="-53.2" gradientTransform="translate(1261.87) rotate(-180) scale(1 -1)" xlink:href="#linear-gradient-18"/>
    <linearGradient id="linear-gradient-21" x1="-296.76" y1="-326.27" x2="93.51" y2="-458.77" xlink:href="#linear-gradient-18"/>
  </defs>
  <g class="cls-58">
    <g id="Layer_1" data-name="Layer 1">
      <g>
        <polygon class="cls-8" points="2287.19 0 2180.62 0 2020.65 0 1990.01 0 1960.82 0 1919.47 0 1890.28 0 1848.93 0 1819.73 0 1778.39 0 1749.19 0 1182.92 0 813.83 0 804.09 0 755.09 0 745.36 0 738.78 0 726.23 0 716.5 0 668.78 0 667.49 0 657.76 0 638.64 0 628.9 0 595.67 0 579.9 0 570.17 0 551.04 0 541.31 0 492.3 0 482.57 0 463.44 0 453.71 0 404.71 0 394.97 0 375.85 0 366.11 0 317.11 0 307.38 0 288.25 0 278.52 0 229.51 0 219.78 0 200.65 0 190.92 0 141.92 0 132.18 0 113.06 0 103.33 0 54.32 0 44.59 0 25.46 0 15.73 0 0 0 0 15.73 0 25.46 0 33.27 0 43.01 0 103.33 0 113.06 0 120.87 0 130.6 0 160.29 0 423.73 0 726.89 0 728.06 0 757.26 0 798.61 0 827.8 0 869.15 0 898.34 0 939.69 0 968.89 0 1010.23 0 1035.01 4.42 1035.01 37.51 1035.01 240.44 1035.01 509.72 1035.01 531.9 1035.01 569.88 1035.01 607.46 1035.01 645.44 1035.01 683.02 1035.01 721 1035.01 756.26 1035.01 1178.18 1035.01 1187.29 1035.01 1187.91 1035.01 1226.82 1035.01 1236.56 1035.01 1265.78 1035.01 1275.51 1035.01 1314.42 1035.01 1324.15 1035.01 1335.58 1035.01 1353.37 1035.01 1363.11 1035.01 1402.01 1035.01 1411.75 1035.01 1440.97 1035.01 1450.7 1035.01 1489.61 1035.01 1499.34 1035.01 1520.59 1035.01 1907.77 1035.01 2108.72 1035.01 2298.66 1035.01 2298.66 581.65 2298.66 531.48 2298.66 167.64 2298.66 0 2287.19 0"/>
        <g class="cls-59">
          <polygon class="cls-55" points="2298.66 25.49 2273.26 0 2263.55 0 2298.66 35.23 2298.66 25.49"/>
          <polygon class="cls-55" points="2298.66 65.03 2233.87 0 2224.16 0 2298.66 74.77 2298.66 65.03"/>
          <polygon class="cls-55" points="2298.66 104.56 2194.47 0 2184.76 0 2298.66 114.31 2298.66 104.56"/>
          <polygon class="cls-55" points="2298.66 144.1 2155.08 0 2145.37 0 2298.66 153.85 2298.66 144.1"/>
          <polygon class="cls-55" points="2298.66 183.65 2115.68 0 2105.97 0 2298.66 193.39 2298.66 183.65"/>
          <polygon class="cls-55" points="2298.66 223.18 2076.29 0 2066.58 0 2298.66 232.93 2298.66 223.18"/>
          <polygon class="cls-55" points="2298.66 262.72 2036.89 0 2027.18 0 2298.66 272.47 2298.66 262.72"/>
          <polygon class="cls-55" points="2298.66 302.26 1997.5 0 1990.01 0 1987.79 0 2298.66 312.01 2298.66 302.26"/>
          <polygon class="cls-55" points="2298.66 341.8 1958.1 0 1948.39 0 2298.66 351.55 2298.66 341.8"/>
          <polygon class="cls-55" points="2298.66 381.34 1918.71 0 1909 0 2298.66 391.09 2298.66 381.34"/>
          <polygon class="cls-55" points="2298.66 420.88 1879.31 0 1869.6 0 2298.66 430.63 2298.66 420.88"/>
          <polygon class="cls-55" points="2298.66 460.42 1839.92 0 1830.2 0 2298.66 470.17 2298.66 460.42"/>
          <polygon class="cls-55" points="2298.66 499.96 1800.52 0 1790.81 0 2298.66 509.71 2298.66 499.96"/>
          <polygon class="cls-55" points="2298.66 539.5 1761.13 0 1751.42 0 2298.66 549.25 2298.66 539.5"/>
          <polygon class="cls-55" points="2298.66 581.65 2298.66 579.04 1721.73 0 1712.02 0 2298.66 588.78 2298.66 581.65"/>
          <polygon class="cls-55" points="2298.66 618.57 1682.34 0 1672.63 0 2298.66 628.32 2298.66 618.57"/>
          <polygon class="cls-55" points="2298.66 658.11 1642.94 0 1633.23 0 2298.66 667.86 2298.66 658.11"/>
          <polygon class="cls-55" points="2298.66 697.66 1603.54 0 1593.83 0 2298.66 707.4 2298.66 697.66"/>
          <polygon class="cls-55" points="2298.66 737.19 1564.15 0 1554.44 0 2298.66 746.94 2298.66 737.19"/>
          <polygon class="cls-55" points="2298.66 776.73 1524.76 0 1515.04 0 2298.66 786.48 2298.66 776.73"/>
          <polygon class="cls-55" points="2298.66 816.27 1485.36 0 1475.65 0 2298.66 826.02 2298.66 816.27"/>
          <polygon class="cls-55" points="2298.66 855.81 1445.97 0 1436.26 0 2298.66 865.56 2298.66 855.81"/>
          <polygon class="cls-55" points="2298.66 895.35 1406.57 0 1396.86 0 2298.66 905.1 2298.66 895.35"/>
          <polygon class="cls-55" points="2298.66 934.89 1367.18 0 1357.47 0 2298.66 944.64 2298.66 934.89"/>
          <polygon class="cls-55" points="2298.66 974.43 1327.78 0 1318.07 0 2298.66 984.18 2298.66 974.43"/>
          <polygon class="cls-55" points="2298.66 1013.97 1288.38 0 1278.67 0 2298.66 1023.72 2298.66 1013.97"/>
          <polygon class="cls-55" points="2280.23 1035.01 1248.99 0 1239.28 0 2270.51 1035.01 2280.23 1035.01"/>
          <polygon class="cls-55" points="2240.83 1035.01 1209.6 0 1199.88 0 2231.12 1035.01 2240.83 1035.01"/>
          <polygon class="cls-55" points="2201.44 1035.01 1170.2 0 1160.49 0 2191.73 1035.01 2201.44 1035.01"/>
          <polygon class="cls-55" points="2162.04 1035.01 1130.81 0 1121.09 0 2152.33 1035.01 2162.04 1035.01"/>
          <polygon class="cls-55" points="2122.65 1035.01 1091.41 0 1081.7 0 2112.94 1035.01 2122.65 1035.01"/>
          <polygon class="cls-55" points="2083.25 1035.01 1052.02 0 1042.3 0 2073.54 1035.01 2083.25 1035.01"/>
          <polygon class="cls-55" points="2043.86 1035.01 1012.62 0 1002.91 0 2034.14 1035.01 2043.86 1035.01"/>
          <polygon class="cls-55" points="2004.46 1035.01 973.23 0 963.51 0 1994.75 1035.01 2004.46 1035.01"/>
          <polygon class="cls-55" points="1965.07 1035.01 933.83 0 924.12 0 1955.35 1035.01 1965.07 1035.01"/>
          <polygon class="cls-55" points="1925.67 1035.01 894.44 0 884.72 0 1915.96 1035.01 1925.67 1035.01"/>
          <polygon class="cls-55" points="1886.28 1035.01 855.04 0 845.33 0 1876.56 1035.01 1886.28 1035.01"/>
          <polygon class="cls-55" points="1846.88 1035.01 815.65 0 813.83 0 805.93 0 1837.17 1035.01 1846.88 1035.01"/>
          <polygon class="cls-55" points="1807.49 1035.01 776.25 0 766.54 0 1797.77 1035.01 1807.49 1035.01"/>
          <polygon class="cls-55" points="1768.09 1035.01 736.86 0 727.14 0 1758.38 1035.01 1768.09 1035.01"/>
          <polygon class="cls-55" points="1728.7 1035.01 697.46 0 687.75 0 1718.98 1035.01 1728.7 1035.01"/>
          <polygon class="cls-55" points="1689.3 1035.01 658.07 0 657.76 0 648.35 0 1679.59 1035.01 1689.3 1035.01"/>
          <polygon class="cls-55" points="1649.91 1035.01 618.67 0 608.96 0 1640.19 1035.01 1649.91 1035.01"/>
          <polygon class="cls-55" points="1610.51 1035.01 579.28 0 570.17 0 569.56 0 1600.8 1035.01 1610.51 1035.01"/>
          <polygon class="cls-55" points="1571.12 1035.01 539.88 0 530.17 0 1561.4 1035.01 1571.12 1035.01"/>
          <polygon class="cls-55" points="1531.72 1035.01 500.49 0 492.3 0 490.77 0 1522.01 1035.01 1531.72 1035.01"/>
          <polygon class="cls-55" points="1489.61 1035.01 1492.33 1035.01 461.09 0 453.71 0 451.38 0 1482.61 1035.01 1489.61 1035.01"/>
          <polygon class="cls-55" points="1450.7 1035.01 1452.93 1035.01 421.7 0 411.98 0 1443.22 1035.01 1450.7 1035.01"/>
          <polygon class="cls-55" points="1411.75 1035.01 1413.54 1035.01 382.3 0 375.85 0 372.59 0 1403.82 1035.01 1411.75 1035.01"/>
          <polygon class="cls-55" points="1374.14 1035.01 342.9 0 333.19 0 1364.43 1035.01 1374.14 1035.01"/>
          <polygon class="cls-55" points="1334.75 1035.01 303.51 0 293.8 0 1325.03 1035.01 1334.75 1035.01"/>
          <polygon class="cls-55" points="1295.35 1035.01 264.12 0 254.4 0 1285.64 1035.01 1295.35 1035.01"/>
          <polygon class="cls-55" points="1255.96 1035.01 224.72 0 219.78 0 215 0 1246.24 1035.01 1255.96 1035.01"/>
          <polygon class="cls-55" points="1216.56 1035.01 185.32 0 175.61 0 1206.85 1035.01 1216.56 1035.01"/>
          <polygon class="cls-55" points="1177.17 1035.01 145.93 0 141.92 0 136.22 0 1167.45 1035.01 1177.17 1035.01"/>
          <polygon class="cls-55" points="1137.77 1035.01 106.53 0 103.33 0 96.82 0 1128.06 1035.01 1137.77 1035.01"/>
          <polygon class="cls-55" points="1098.38 1035.01 67.14 0 57.42 0 1088.66 1035.01 1098.38 1035.01"/>
          <polygon class="cls-55" points="1058.98 1035.01 27.74 0 25.46 0 18.03 0 1049.27 1035.01 1058.98 1035.01"/>
          <polygon class="cls-55" points="1019.59 1035.01 0 11.69 0 15.73 0 21.44 1009.87 1035.01 1019.59 1035.01"/>
          <polygon class="cls-55" points="980.19 1035.01 0 51.23 0 60.98 970.47 1035.01 980.19 1035.01"/>
          <polygon class="cls-55" points="940.8 1035.01 0 90.77 0 100.52 931.08 1035.01 940.8 1035.01"/>
          <polygon class="cls-55" points="901.4 1035.01 0 130.31 0 130.6 0 140.06 891.69 1035.01 901.4 1035.01"/>
          <polygon class="cls-55" points="862.01 1035.01 0 169.85 0 179.6 852.29 1035.01 862.01 1035.01"/>
          <polygon class="cls-55" points="822.61 1035.01 0 209.39 0 219.14 812.89 1035.01 822.61 1035.01"/>
          <polygon class="cls-55" points="783.22 1035.01 0 248.93 0 258.68 773.5 1035.01 783.22 1035.01"/>
          <polygon class="cls-55" points="743.82 1035.01 0 288.47 0 298.22 734.11 1035.01 743.82 1035.01"/>
          <polygon class="cls-55" points="704.43 1035.01 0 328.01 0 337.76 694.71 1035.01 704.43 1035.01"/>
          <polygon class="cls-55" points="665.03 1035.01 0 367.55 0 377.3 655.31 1035.01 665.03 1035.01"/>
          <polygon class="cls-55" points="625.64 1035.01 0 407.08 0 416.84 615.92 1035.01 625.64 1035.01"/>
          <polygon class="cls-55" points="586.24 1035.01 0 446.63 0 456.38 576.52 1035.01 586.24 1035.01"/>
          <polygon class="cls-55" points="546.85 1035.01 0 486.16 0 495.92 537.13 1035.01 546.85 1035.01"/>
          <polygon class="cls-55" points="507.45 1035.01 0 525.7 0 535.45 497.73 1035.01 507.45 1035.01"/>
          <polygon class="cls-55" points="468.06 1035.01 0 565.24 0 574.99 458.34 1035.01 468.06 1035.01"/>
          <polygon class="cls-55" points="428.66 1035.01 0 604.78 0 614.53 418.94 1035.01 428.66 1035.01"/>
          <polygon class="cls-55" points="389.27 1035.01 0 644.32 0 654.07 379.55 1035.01 389.27 1035.01"/>
          <polygon class="cls-55" points="349.87 1035.01 0 683.86 0 693.61 340.15 1035.01 349.87 1035.01"/>
          <polygon class="cls-55" points="310.48 1035.01 0 723.4 0 726.89 0 728.06 0 733.15 300.76 1035.01 310.48 1035.01"/>
          <polygon class="cls-55" points="271.08 1035.01 0 762.94 0 772.69 261.36 1035.01 271.08 1035.01"/>
          <polygon class="cls-55" points="231.69 1035.01 0 802.48 0 812.23 221.97 1035.01 231.69 1035.01"/>
          <polygon class="cls-55" points="192.29 1035.01 0 842.02 0 851.77 182.57 1035.01 192.29 1035.01"/>
          <polygon class="cls-55" points="152.9 1035.01 0 881.56 0 891.31 143.18 1035.01 152.9 1035.01"/>
          <polygon class="cls-55" points="113.5 1035.01 0 921.1 0 930.85 103.78 1035.01 113.5 1035.01"/>
          <polygon class="cls-55" points="74.1 1035.01 0 960.64 0 968.89 0 970.39 64.39 1035.01 74.1 1035.01"/>
          <polygon class="cls-55" points="34.71 1035.01 0 1000.17 0 1009.93 24.99 1035.01 34.71 1035.01"/>
        </g>
        <g>
          <polygon class="cls-20" points="383.66 843.7 115.57 843.7 115.57 821.67 360.53 821.67 360.53 709.67 547.62 709.67 547.62 812.51 657.55 812.51 657.55 654.58 858.99 654.58 858.99 742.73 1101.24 742.73 1101.24 764.76 835.84 764.76 835.84 676.62 680.7 676.62 680.7 834.53 524.48 834.53 524.48 731.7 383.66 731.7 383.66 843.7"/>
          <g>
            <g>
              <rect class="cls-31" x="874.54" y="593.6" width="22.8" height="149.33"/>
              <rect class="cls-47" x="905.57" y="593.77" width="22.81" height="149.34"/>
              <rect class="cls-10" x="937.68" y="593.6" width="22.81" height="149.33"/>
            </g>
            <g>
              <polygon class="cls-6" points="970.7 742.49 962.9 616.24 1008.42 613.7 1016.22 739.93 970.7 742.49"/>
              <polygon class="cls-10" points="964.11 636.49 963.79 631.45 1009.31 628.89 1009.63 633.95 964.11 636.49"/>
              <polygon class="cls-12" points="965.1 652.63 964.78 647.58 1010.32 645.03 1010.62 650.08 965.1 652.63"/>
              <polygon class="cls-47" points="966.09 668.76 965.78 663.72 1011.31 661.16 1011.62 666.22 966.09 668.76"/>
              <polygon class="cls-31" points="967.09 684.9 966.78 679.84 1012.3 677.29 1012.62 682.35 967.09 684.9"/>
            </g>
          </g>
          <g>
            <rect class="cls-33" x="149.29" y="808.29" width="186.56" height="13.17"/>
            <rect class="cls-35" x="299.72" y="808.29" width="13.07" height="13.17"/>
            <polygon class="cls-2" points="332.77 808.29 154.66 808.29 154.66 792.55 332.77 795.11 332.77 808.29"/>
            <polygon class="cls-9" points="328.77 795.76 150.58 794.6 150.15 777.04 328.3 776.49 328.77 795.76"/>
            <polygon class="cls-29" points="328.77 795.76 300.33 795.66 299.9 778.11 328.34 778.21 328.77 795.76"/>
            <rect class="cls-34" x="145.44" y="760.54" width="189.9" height="17.57"/>
          </g>
          <g>
            <polygon class="cls-25" points="526.96 709.7 381.66 709.7 381.66 695.99 526.96 696.53 526.96 709.7"/>
            <polygon class="cls-45" points="524.73 697.15 379.45 695.93 379.66 678.36 524.9 683.9 524.73 697.15"/>
            <rect class="cls-57" x="449.78" y="594.92" width="17.57" height="161.13" transform="translate(-222.44 1125.79) rotate(-89.3)"/>
          </g>
          <g>
            <rect class="cls-12" x="555" y="689.72" width="23.06" height="122.56"/>
            <rect class="cls-31" x="560.61" y="769.76" width="10.3" height="35.22"/>
          </g>
          <g>
            <rect class="cls-31" x="586.3" y="680.37" width="10.78" height="131.84"/>
            <rect class="cls-12" x="586.3" y="727.98" width="10.78" height="32.68"/>
          </g>
          <g>
            <rect class="cls-12" x="606.61" y="721.15" width="10.78" height="91.06"/>
            <rect class="cls-6" x="606.61" y="735.79" width="10.78" height="12.96"/>
          </g>
          <g>
            <polygon class="cls-10" points="627.36 812.11 627 678.59 647.46 678.59 647.82 812.11 627.36 812.11"/>
            <rect class="cls-6" x="627" y="696.78" width="20.08" height="12.69"/>
            <rect class="cls-12" x="627" y="708.14" width="20.08" height="5.43"/>
          </g>
          <g>
            <polygon class="cls-19" points="689.25 654.42 827.85 654.45 827.85 634.35 689.25 634.35 689.25 654.42"/>
            <polygon class="cls-54" points="697.69 634.69 822.72 634.93 822.46 618.45 697.42 618.2 697.69 634.69"/>
            <polygon class="cls-28" points="697.69 634.69 712.83 634.72 712.57 618.23 697.42 618.2 697.69 634.69"/>
            <polygon class="cls-28" points="811.35 634.91 822.72 634.93 822.46 618.45 811.08 618.42 811.35 634.91"/>
            <polygon class="cls-35" points="702.3 618.21 817.6 618.44 817.14 589.56 701.84 589.34 702.3 618.21"/>
            <polygon class="cls-15" points="713.67 618.24 740.19 618.29 739.73 589.41 713.2 589.36 713.67 618.24"/>
            <polygon class="cls-39" points="812.11 613.26 800.19 613.24 799.9 594.68 811.81 594.71 812.11 613.26"/>
          </g>
          <g>
            <g>
              <polygon class="cls-18" points="1037.97 647.58 1044.37 715.57 1038.51 716.06 1032.11 648.07 1037.97 647.58"/>
              <path class="cls-21" d="m1038.5,716.06c.14,1.53,1.58,2.67,3.21,2.53,1.63-.13,2.83-1.49,2.69-3.02l-5.9.49Z"/>
              <path class="cls-21" d="m1033.47,638.54l-1.36,9.53,5.85-.48-3.13-9.16c-.22.05-.45.09-.68.11-.23.01-.46.01-.69,0Z"/>
              <path class="cls-18" d="m1033.47,638.54c.24.01.46.01.69,0,.23-.02.45-.07.68-.11l-.94-2.77-.43,2.88Z"/>
            </g>
            <g>
              <polygon class="cls-43" points="1044.74 652.29 1053.11 720.09 1047.27 720.73 1038.9 652.93 1044.74 652.29"/>
              <path class="cls-21" d="m1047.24,720.73c.19,1.53,1.66,2.62,3.29,2.44,1.62-.17,2.79-1.55,2.6-3.08l-5.89.64Z"/>
              <path class="cls-21" d="m1040,643.36l-1.1,9.56,5.84-.64-3.4-9.06c-.22.05-.43.1-.68.13-.23.02-.46.02-.67.01Z"/>
              <path class="cls-43" d="m1040,643.36c.21,0,.45,0,.67-.01.24-.02.46-.08.68-.13l-1.03-2.75-.32,2.89Z"/>
            </g>
            <g>
              <polygon class="cls-48" points="1073.87 657.88 1062.39 725.28 1056.58 724.4 1068.06 657.01 1073.87 657.88"/>
              <path class="cls-21" d="m1056.56,724.39c-.26,1.53.84,2.96,2.46,3.19,1.62.25,3.15-.79,3.41-2.3l-5.86-.89Z"/>
              <path class="cls-21" d="m1071.88,648.09l-3.81,8.92,5.81.87-.65-9.59c-.23,0-.46-.01-.68-.05-.23-.04-.45-.1-.66-.16Z"/>
              <path class="cls-48" d="m1071.88,648.09c.21.06.43.12.66.16.23.03.45.05.68.05l-.19-2.9-1.15,2.7Z"/>
            </g>
            <polygon class="cls-16" points="1058.21 678.78 1046.93 678.78 1026.85 678.78 1033.9 743.75 1046.93 743.75 1058.21 743.75 1071.25 743.75 1078.31 678.78 1058.21 678.78"/>
          </g>
          <rect class="cls-36" x="935.39" y="602.09" width="27.61" height="4.44"/>
          <rect class="cls-36" x="935.39" y="609.29" width="27.61" height="4.44"/>
          <rect class="cls-36" x="935.39" y="727.18" width="27.61" height="4.44"/>
          <rect class="cls-36" x="903.17" y="602.77" width="27.61" height="4.44"/>
          <rect class="cls-36" x="872.13" y="727.18" width="27.61" height="4.44"/>
          <rect class="cls-36" x="872.13" y="718.54" width="27.61" height="4.44"/>
          <rect class="cls-36" x="872.13" y="607.2" width="27.61" height="2.22"/>
        </g>
        <g>
          <polygon class="cls-42" points="1451.24 915.66 1534.81 915.66 1547.48 915.66 1631.05 915.66 1673.08 1028.11 1547.48 1028.11 1534.81 1028.11 1409.21 1028.11 1451.24 915.66"/>
          <rect class="cls-46" x="1103.06" y="309.9" width="876.16" height="636.89" rx="5.11" ry="5.11" transform="translate(3082.29 1256.69) rotate(-180)"/>
          <rect class="cls-30" x="1150.85" y="357.69" width="780.58" height="475.09"/>
          <rect class="cls-26" x="1823.46" y="375.24" width="107.97" height="457.55" transform="translate(3754.89 1208.02) rotate(-180)"/>
          <path class="cls-53" d="m1834.61,386.39h85.67v435.25h-85.67v-435.25Zm76.11,9.56h-66.55s0,416.13,0,416.13h66.55s0-416.13,0-416.13Z"/>
          <rect class="cls-13" x="1444.84" y="465.46" width="61.7" height="367.33" transform="translate(2951.39 1298.24) rotate(-180)"/>
          <rect class="cls-44" x="1383.14" y="409.56" width="61.7" height="423.23" transform="translate(2827.98 1242.34) rotate(-180)"/>
          <rect class="cls-51" x="1214.17" y="407.98" width="80.06" height="424.8" transform="translate(2508.39 1240.77) rotate(-180)"/>
          <rect class="cls-49" x="1764.09" y="375.24" width="59.37" height="457.55" transform="translate(3587.55 1208.02) rotate(-180)"/>
          <rect class="cls-56" x="1506.54" y="465.46" width="28.5" height="367.33" transform="translate(3041.59 1298.24) rotate(-180)"/>
          <rect class="cls-24" x="1343.02" y="374.77" width="40.12" height="458.02" transform="translate(2726.17 1207.55) rotate(-180)"/>
          <rect class="cls-4" x="1687.74" y="405.76" width="76.35" height="427.02" transform="translate(3451.83 1238.55) rotate(-180)"/>
          <rect class="cls-32" x="1611.39" y="383.07" width="76.35" height="449.72" transform="translate(3299.13 1215.85) rotate(-180)"/>
          <rect class="cls-41" x="1535.04" y="424.05" width="76.35" height="408.74" transform="translate(3146.43 1256.83) rotate(-180)"/>
          <rect class="cls-23" x="1294.22" y="375.24" width="48.8" height="457.55" transform="translate(2637.25 1208.02) rotate(-180)"/>
          <rect class="cls-37" x="1150.85" y="380.41" width="63.32" height="452.38" transform="translate(2365.02 1213.19) rotate(-180)"/>
          <path class="cls-3" d="m1225.69,639.29c.11.16.21.32.32.48,2.74,3.98,6.26,7.3,10.3,9.78.15.09.31.19.46.28.39.23.78.46,1.18.67.44.24.88.46,1.32.68.36.17.72.34,1.08.5.38.17.76.33,1.15.49.26.11.53.21.8.31.63.24,1.27.45,1.92.65.16.05.32.09.48.14.57.16,1.14.31,1.73.45.19.04.38.09.57.13.72.15,1.45.29,2.18.4.08.01.15.02.23.03.67.09,1.35.17,2.03.22.19.02.38.03.58.04.75.05,1.51.08,2.28.08s1.53-.04,2.28-.09c.19-.01.38-.03.58-.05.68-.06,1.36-.13,2.03-.23.08-.01.15-.02.23-.03.73-.11,1.46-.25,2.18-.41.19-.04.38-.09.57-.13.58-.14,1.16-.29,1.72-.46.16-.05.32-.09.48-.14.65-.2,1.29-.42,1.92-.66.27-.1.53-.21.79-.32.39-.16.77-.32,1.15-.49.34-.15.69-.31,1.02-.48.46-.23.92-.46,1.37-.71.4-.22.78-.45,1.17-.68.16-.09.31-.19.46-.28,4.03-2.5,7.53-5.84,10.25-9.84.11-.16.21-.31.31-.47.35-.53.68-1.07,1-1.62.21-.35.41-.71.6-1.07.15-.29.3-.59.45-.88.22-.44.42-.88.62-1.33.07-.16.16-.32.23-.48.01-.03.02-.05.03-.08,1.74-4.12,2.7-8.65,2.69-13.39-.01-4.75-1-9.27-2.76-13.38-.01-.03-.02-.06-.03-.08-.07-.17-.16-.33-.24-.49-.2-.44-.4-.87-.62-1.3-.15-.3-.3-.6-.46-.9-.18-.34-.37-.66-.57-.99-.34-.58-.69-1.14-1.06-1.7-.1-.14-.19-.29-.29-.43-2.74-4-6.27-7.32-10.32-9.8-.15-.09-.29-.18-.44-.27-.39-.23-.79-.46-1.19-.68-.38-.21-.77-.4-1.16-.59-.41-.2-.83-.4-1.25-.58-.37-.17-.75-.33-1.13-.48-.27-.11-.53-.22-.81-.32-.63-.23-1.27-.45-1.91-.65-.16-.05-.33-.09-.49-.14-.57-.16-1.14-.31-1.72-.45-.19-.04-.38-.09-.57-.13-.72-.15-1.44-.29-2.18-.4-.08-.01-.15-.02-.23-.03-.67-.09-1.35-.17-2.03-.22-.19-.02-.38-.03-.58-.04-.75-.05-1.51-.08-2.28-.08-.77,0-1.53.04-2.28.09-.19.01-.38.03-.58.05-.68.06-1.36.13-2.03.23-.08.01-.15.02-.23.03-.73.11-1.46.25-2.18.41-.19.04-.38.09-.57.13-.58.14-1.14.29-1.71.46-.17.05-.33.09-.5.14-.64.2-1.28.42-1.91.66-.27.1-.54.21-.81.32-.38.15-.75.32-1.12.48-.45.2-.9.42-1.35.64-.36.18-.71.36-1.06.55-.4.22-.8.45-1.19.69-.14.09-.29.17-.43.26-4.04,2.51-7.55,5.85-10.27,9.85-.1.15-.2.3-.3.45-.35.54-.69,1.08-1.01,1.64-.2.35-.4.7-.59,1.05-.15.29-.3.58-.45.88-.22.44-.43.89-.63,1.34-.07.16-.15.31-.22.46-.01.03-.02.05-.03.08-1.74,4.12-2.71,8.65-2.69,13.4.01,4.75,1,9.27,2.77,13.38,0,.02.01.05.02.07.07.15.15.3.21.45.21.46.42.91.65,1.36.15.29.29.58.45.86.2.37.42.74.63,1.11.31.53.64,1.06.98,1.57Zm2.94-5.43c2.04-1.08,4.96-2.11,8.6-2.93,1.06,6.42,3.06,11.97,5.7,16.08-.27-.12-.54-.24-.81-.36-.21-.1-.41-.19-.62-.29-.32-.16-.64-.32-.96-.49-.07-.04-.14-.08-.21-.12-4.01-2.2-7.45-5.33-10.02-9.09-.04-.05-.07-.11-.11-.16-.41-.61-.8-1.24-1.16-1.88-.08-.15-.17-.29-.25-.44-.06-.1-.11-.21-.16-.31Zm37.78,12.72c-.27.12-.53.25-.8.37,2.62-4.12,4.59-9.68,5.61-16.11,3.65.8,6.57,1.81,8.62,2.89-.05.1-.1.21-.16.31-.08.15-.17.3-.25.44-.36.64-.74,1.27-1.14,1.88-.04.06-.08.12-.11.17-2.55,3.77-5.96,6.91-9.95,9.13-.08.04-.15.09-.23.13-.31.17-.63.33-.95.49-.21.1-.41.2-.62.3Zm15.44-17.79c-2.68-1.34-6.09-2.45-10.02-3.27.12-1.69.19-3.42.18-5.18,0-1.77-.08-3.5-.21-5.18,3.93-.84,7.33-1.97,10.01-3.32.83,2.68,1.29,5.52,1.29,8.47,0,2.95-.43,5.8-1.25,8.48Zm-2.09-21.87c-2.04,1.08-4.96,2.12-8.6,2.93-1.06-6.42-3.06-11.97-5.7-16.08.27.12.54.24.81.36.21.1.41.19.62.29.32.16.64.32.96.49.07.04.14.08.21.12,4.01,2.2,7.45,5.33,10.02,9.1.03.05.06.09.09.14.42.63.82,1.28,1.2,1.94.07.13.15.26.22.39.06.1.11.21.16.32Zm-37.78-12.72c.27-.13.54-.25.81-.37-2.62,4.12-4.58,9.68-5.61,16.11-3.65-.8-6.57-1.81-8.62-2.89.06-.11.11-.21.16-.32.07-.13.15-.26.22-.39.37-.67.76-1.32,1.19-1.95.03-.05.06-.09.09-.14,2.55-3.78,5.97-6.93,9.97-9.15.07-.04.14-.08.21-.12.31-.17.63-.33.96-.49.2-.1.41-.2.62-.3Zm12.14-2.72c4.72-.01,9.89,7.57,11.8,19.31-3.49.49-7.43.79-11.75.8s-8.26-.26-11.75-.73c1.85-11.75,6.97-19.36,11.7-19.37Zm-12.27,24.66c3.84.5,8,.77,12.34.76s8.5-.3,12.34-.83c.1,1.39.17,2.81.17,4.28s-.06,2.89-.15,4.28c-3.84-.5-8-.77-12.34-.76-4.34.01-8.5.3-12.34.83-.1-1.39-.17-2.81-.17-4.28s.06-2.89.15-4.28Zm12.43,33.15c-4.72.01-9.89-7.57-11.8-19.31,3.49-.49,7.43-.79,11.75-.8,4.32-.01,8.26.26,11.75.73-1.85,11.75-6.97,19.36-11.7,19.37Zm-27.69-20.35c-.83-2.68-1.29-5.52-1.29-8.47,0-2.95.43-5.8,1.25-8.48,2.68,1.34,6.09,2.45,10.02,3.27-.12,1.69-.19,3.42-.18,5.18,0,1.77.08,3.5.21,5.18-3.93.84-7.33,1.97-10.01,3.32Z"/>
          <g>
            <g>
              <rect class="cls-27" x="1611.39" y="425.94" width="76.35" height="7.28" transform="translate(3299.13 859.15) rotate(-180)"/>
              <rect class="cls-27" x="1611.39" y="440.81" width="76.35" height="7.28" transform="translate(3299.13 888.89) rotate(-180)"/>
            </g>
            <g>
              <rect class="cls-27" x="1611.39" y="767.77" width="76.35" height="7.28" transform="translate(3299.13 1542.81) rotate(-180)"/>
              <rect class="cls-27" x="1611.39" y="782.63" width="76.35" height="7.28" transform="translate(3299.13 1572.55) rotate(-180)"/>
            </g>
          </g>
          <g>
            <rect class="cls-1" x="1535.04" y="494.2" width="76.35" height="14.34" transform="translate(3146.43 1002.73) rotate(-180)"/>
            <rect class="cls-1" x="1535.04" y="748.3" width="76.35" height="14.34" transform="translate(3146.43 1510.93) rotate(-180)"/>
          </g>
          <path class="cls-5" d="m1961.89,325.83c.77,0,1.4.63,1.4,1.4v602.22c0,.77-.63,1.4-1.4,1.4h-55.14s-731.1-605.03-731.1-605.03h786.24Z"/>
        </g>
        <g>
          <path class="cls-52" d="m1941.79,203.93c87.21,41.44,141.65,109.25,121.59,151.47l-38.5,81.04c-20.06,42.22-107.02,42.85-194.23,1.42-87.21-41.44-141.65-109.25-121.59-151.47l38.5-81.04c20.06-42.22,107.02-42.85,194.23-1.42Z"/>
          <rect class="cls-7" x="1881.59" y="378.52" width="9.56" height="210.93"/>
          <path class="cls-50" d="m1870.93,631.7h30.59s0-36.75,0-36.75c0-8.45-6.85-15.29-15.29-15.29h0c-8.45,0-15.29,6.85-15.29,15.29v36.75Z"/>
          <g>
            <path class="cls-40" d="m1998.46,112.82l180.2,261c3.48,5.03.19,11.94-5.91,12.43l-316.16,25.17c-5.69.45-11.23-1.16-15.77-4.33l150.09-301.27c2.94,1.75,5.54,4.09,7.55,7Z"/>
            <path class="cls-11" d="m1834.76,401.05l-180.2-261c-3.48-5.03-.19-11.94,5.91-12.43l316.16-25.17c5.08-.4,10.05.84,14.28,3.37l-150.09,301.27c-2.32-1.63-4.4-3.64-6.06-6.04Z"/>
          </g>
        </g>
      </g>
      <g>
        <polygon class="cls-35" points="421.46 484.98 590.42 485.01 590.49 461.5 421.46 461.5 421.46 484.98"/>
        <polygon class="cls-14" points="428.12 461.5 579.42 462.3 579.53 442 428.22 441.2 428.12 461.5"/>
        <rect class="cls-28" x="427.18" y="442.23" width="20.3" height="18.33" transform="translate(-16.26 886.46) rotate(-89.71)"/>
        <rect class="cls-28" x="562.45" y="445.24" width="20.3" height="13.76" transform="translate(117.33 1022.21) rotate(-89.68)"/>
        <rect class="cls-17" x="486.21" y="353.88" width="35.56" height="139.52" transform="translate(77.68 925.37) rotate(-89.7)"/>
        <polygon class="cls-10" points="447.89 441.12 479.98 441.3 480.17 405.74 448.07 405.56 447.89 441.12"/>
        <rect class="cls-39" x="548.57" y="416.72" width="22.85" height="14.42" transform="translate(133.18 981.73) rotate(-89.7)"/>
      </g>
      <g>
        <path class="cls-38" d="m408.02,345.95c-1.16-5.43-6.51-8.89-11.96-7.75-5.44,1.16-8.92,6.51-7.76,11.93,1.16,5.43,6.51,8.9,11.95,7.74,5.45-1.15,8.92-6.49,7.76-11.93Z"/>
        <path class="cls-43" d="m329.6,470.37c-6.36,2.58-13.64-.48-16.24-6.84l-26.69-65.49c-.53-1.29.08-2.73,1.37-3.26l18.45-7.51c1.27-.51,2.73.11,3.26,1.39l26.69,65.5c2.59,6.35-.47,13.63-6.85,16.21Zm-37.36-71.9l25.75,63.19c1.56,3.79,5.91,5.64,9.73,4.09,3.81-1.55,5.65-5.9,4.1-9.7l-25.76-63.2-13.82,5.62Z"/>
        <path class="cls-22" d="m353.66,367.87l-50.03,50.04c-.98.99-2.57.99-3.53,0l-14.11-14.03c-.97-.97-.97-2.56,0-3.53l50.04-50.06c4.85-4.85,12.75-4.87,17.61-.02,4.87,4.84,4.87,12.74.02,17.6Zm-51.8,44.75l48.26-48.29c2.91-2.9,2.91-7.63-.01-10.54-2.91-2.88-7.65-2.88-10.54.01l-48.27,48.29,10.56,10.53Z"/>
        <polygon class="cls-22" points="378.44 319.54 361.12 308.32 346.9 330.2 364.04 341.31 383.89 370 398.17 348.05 398.28 347.88 412.55 325.92 378.44 319.54"/>
        <polygon class="cls-22" points="347.6 349.17 352.35 351.49 363.85 339.98 359.35 337.42 347.6 349.17"/>
        <path class="cls-43" d="m318.1,402.4c0-9.66-7.86-17.49-17.54-17.49s-17.53,7.83-17.53,17.49,7.85,17.51,17.53,17.51,17.54-7.84,17.54-17.51Z"/>
        <path class="cls-39" d="m309.53,402.4c0-4.94-4.01-8.94-8.97-8.94s-8.96,4.01-8.96,8.94,4.02,8.96,8.96,8.96,8.97-4.01,8.97-8.96Z"/>
        <path class="cls-43" d="m361.99,485.68c0-19.21-15.61-34.79-34.85-34.79s-34.86,15.58-34.86,34.79h69.71Z"/>
      </g>
      <rect class="cls-39" x="261.23" y="485.04" width="373.08" height="26.92"/>
    </g>
  </g>
</svg>